{
  "source": "C:\\Users\\Peter\\Desktop\\stuff\\MIUN\\quantitative_research\\video_compression\\videos\\BVI-HD\\BVI-HD_CDVL_videos\\ORIG\\PlasmaAveragePan_1920x1080_60fps.mp4",
  "output": "C:\\Users\\Peter\\Desktop\\stuff\\MIUN\\quantitative_research\\video_compression\\compressed_videos\\BVI-HD\\hevc\\2.5\\PlasmaAveragePan_1920x1080_60fps_hevc.mp4",
  "codec": "hevc",
  "ok": "Input #0, mov,mp4,m4a,3gp,3g2,mj2, from 'C:\\Users\\Peter\\Desktop\\stuff\\MIUN\\quantitative_research\\video_compression\\videos\\BVI-HD\\BVI-HD_CDVL_videos\\ORIG\\PlasmaAveragePan_1920x1080_60fps.mp4':\n  Metadata:\n    major_brand     : isom\n    minor_version   : 512\n    compatible_brands: isomiso2avc1mp41\n    encoder         : Lavf54.28.101\n  Duration: 00:00:05.00, start: 0.000000, bitrate: 73730 kb/s\n  Stream #0:0[0x1](und): Video: h264 (High 4:4:4 Predictive) (avc1 / 0x31637661), yuv420p(progressive), 1920x1080, 73727 kb/s, 60 fps, 60 tbr, 60 tbn (default)\n    Metadata:\n      handler_name    : VideoHandler\n      vendor_id       : [0][0][0][0]\n[out#0/mp4 @ 0000029741b87900] Codec AVOption b:a (set bitrate (in bits/s)) has not been used for any stream. The most likely reason is either wrong type (e.g. a video option with no video streams) or that it is a private option of some decoder which was not actually used for any stream.\nStream mapping:\n  Stream #0:0 -> #0:0 (h264 (native) -> hevc (libx265))\nPress [q] to stop, [?] for help\n[libx265 @ 0000029741a72c00] Unknown option: \"aq-mode.\nx265 [info]: HEVC encoder version 4.1+190-8f11c33ac\nx265 [info]: build info [Windows][GCC 15.1.0][64 bit] 10bit\nx265 [info]: using cpu capabilities: MMX2 SSE2Fast LZCNT SSSE3 SSE4.2 AVX FMA3 BMI2 AVX2\nx265 [info]: Main 10 profile, Level-4.1 (Main tier)\nx265 [info]: Thread pool created using 12 threads\nx265 [info]: Slices                              : 1\nx265 [info]: frame threads / pool features       : 3 / wpp(17 rows)\nx265 [info]: Coding QT: max CU size, min CU size : 64 / 8\nx265 [info]: Residual QT: max TU size, max depth : 32 / 1 inter / 1 intra\nx265 [info]: ME / range / subpel / merge         : star / 57 / 3 / 3\nx265 [info]: Keyframe min / max / scenecut / bias  : 25 / 250 / 40 / 5.00 \nx265 [info]: Lookahead / bframes / badapt        : 25 / 4 / 2\nx265 [info]: b-pyramid / weightp / weightb       : 1 / 1 / 0\nx265 [info]: References / ref-limit  cu / depth  : 4 / on / on\nx265 [info]: AQ: mode / str / qg-size / cu-tree  : 2 / 1.0 / 32 / 1\nx265 [info]: Rate Control / qCompress            : ABR-2500 kbps / 0.60\nx265 [info]: VBV/HRD buffer / max-rate / init    : 2500 / 2500 / 0.750\nx265 [info]: tools: rect limit-modes rd=4 psy-rd=2.00 rdoq=2 psy-rdoq=1.00\nx265 [info]: tools: rskip mode=1 signhide tmvp strong-intra-smoothing lslices=4\nx265 [info]: tools: deblock sao dhdr10-info\nOutput #0, mp4, to 'C:\\Users\\Peter\\Desktop\\stuff\\MIUN\\quantitative_research\\video_compression\\compressed_videos\\BVI-HD\\hevc\\2.5\\PlasmaAveragePan_1920x1080_60fps_hevc.mp4':\n  Metadata:\n    major_brand     : isom\n    minor_version   : 512\n    compatible_brands: isomiso2avc1mp41\n    encoder         : Lavf62.3.100\n  Stream #0:0(und): Video: hevc (hev1 / 0x31766568), yuv420p10le(tv, progressive), 1920x1080, q=2-31, 2500 kb/s, 60 fps, 15360 tbn (default)\n    Metadata:\n      encoder         : Lavc62.11.100 libx265\n      handler_name    : VideoHandler\n      vendor_id       : [0][0][0][0]\n    Side data:\n      cpb: bitrate max/min/avg: 2500000/0/2500000 buffer size: 2500000 vbv_delay: N/A\nframe=    0 fps=0.0 q=0.0 size=       0KiB time=N/A bitrate=N/A speed=N/A elapsed=0:00:00.51    \nframe=    0 fps=0.0 q=0.0 size=       0KiB time=N/A bitrate=N/A speed=N/A elapsed=0:00:01.03    \nframe=    0 fps=0.0 q=0.0 size=       0KiB time=N/A bitrate=N/A speed=N/A elapsed=0:00:01.55    \nframe=    0 fps=0.0 q=0.0 size=       0KiB time=N/A bitrate=N/A speed=N/A elapsed=0:00:02.07    \nframe=    0 fps=0.0 q=0.0 size=       0KiB time=N/A bitrate=N/A speed=N/A elapsed=0:00:02.62    \nframe=    0 fps=0.0 q=0.0 size=       0KiB time=N/A bitrate=N/A speed=N/A elapsed=0:00:03.14    \nframe=    0 fps=0.0 q=0.0 size=       0KiB time=N/A bitrate=N/A speed=N/A elapsed=0:00:03.65    \nframe=    1 fps=0.2 q=39.9 size=       0KiB time=-00:00:00.01 bitrate=N/A speed=N/A elapsed=0:00:04.17    \nframe=    2 fps=0.4 q=47.9 size=       0KiB time=00:00:00.00 bitrate=N/A speed=   0x elapsed=0:00:04.69    \nframe=    3 fps=0.6 q=49.3 size=       0KiB time=00:00:00.01 bitrate=  21.1kbits/s speed=0.00319x elapsed=0:00:05.22    \nframe=    4 fps=0.7 q=44.5 size=       0KiB time=00:00:00.03 bitrate=  10.6kbits/s speed=0.00581x elapsed=0:00:05.73    \nframe=    4 fps=0.6 q=44.5 size=       0KiB time=00:00:00.03 bitrate=  10.6kbits/s speed=0.00532x elapsed=0:00:06.26    \nframe=    5 fps=0.7 q=44.4 size=       0KiB time=00:00:00.05 bitrate=   7.0kbits/s speed=0.00734x elapsed=0:00:06.80    \nframe=    7 fps=1.0 q=41.1 size=       0KiB time=00:00:00.08 bitrate=   4.2kbits/s speed=0.0114x elapsed=0:00:07.31    \nframe=    7 fps=0.9 q=41.1 size=       0KiB time=00:00:00.08 bitrate=   4.2kbits/s speed=0.0106x elapsed=0:00:07.83    \nframe=    8 fps=1.0 q=41.5 size=       0KiB time=00:00:00.10 bitrate=   3.5kbits/s speed=0.012x elapsed=0:00:08.34    \nframe=    9 fps=1.0 q=39.2 size=       0KiB time=00:00:00.11 bitrate=   3.0kbits/s speed=0.0131x elapsed=0:00:08.87    \nframe=   10 fps=1.1 q=39.3 size=       0KiB time=00:00:00.13 bitrate=   2.6kbits/s speed=0.0142x elapsed=0:00:09.38    \nframe=   10 fps=1.0 q=39.3 size=       0KiB time=00:00:00.13 bitrate=   2.6kbits/s speed=0.0135x elapsed=0:00:09.90    \nframe=   12 fps=1.2 q=39.2 size=       0KiB time=00:00:00.16 bitrate=   2.1kbits/s speed=0.016x elapsed=0:00:10.43    \nframe=   12 fps=1.1 q=39.2 size=       0KiB time=00:00:00.16 bitrate=   2.1kbits/s speed=0.0152x elapsed=0:00:10.93    \nframe=   13 fps=1.1 q=39.3 size=       0KiB time=00:00:00.18 bitrate=   1.9kbits/s speed=0.016x elapsed=0:00:11.45    \nframe=   14 fps=1.2 q=39.2 size=       0KiB time=00:00:00.20 bitrate=   1.8kbits/s speed=0.0167x elapsed=0:00:11.97    \nframe=   15 fps=1.2 q=36.5 size=       0KiB time=00:00:00.21 bitrate=   1.6kbits/s speed=0.0174x elapsed=0:00:12.48    \nframe=   15 fps=1.2 q=36.5 size=       0KiB time=00:00:00.21 bitrate=   1.6kbits/s speed=0.0167x elapsed=0:00:13.00    \nframe=   16 fps=1.2 q=37.8 size=       0KiB time=00:00:00.23 bitrate=   1.5kbits/s speed=0.0172x elapsed=0:00:13.52    \nframe=   16 fps=1.1 q=37.8 size=       0KiB time=00:00:00.23 bitrate=   1.5kbits/s speed=0.0166x elapsed=0:00:14.04    \nframe=   17 fps=1.2 q=39.1 size=       0KiB time=00:00:00.25 bitrate=   1.4kbits/s speed=0.0171x elapsed=0:00:14.58    \nframe=   18 fps=1.2 q=35.5 size=       0KiB time=00:00:00.26 bitrate=   1.3kbits/s speed=0.0176x elapsed=0:00:15.13    \nframe=   18 fps=1.2 q=35.5 size=       0KiB time=00:00:00.26 bitrate=   1.3kbits/s speed=0.017x elapsed=0:00:15.64    \nframe=   18 fps=1.1 q=35.5 size=       0KiB time=00:00:00.26 bitrate=   1.3kbits/s speed=0.0165x elapsed=0:00:16.16    \nframe=   19 fps=1.1 q=37.8 size=       0KiB time=00:00:00.28 bitrate=   1.2kbits/s speed=0.017x elapsed=0:00:16.69    \nframe=   20 fps=1.2 q=38.1 size=       0KiB time=00:00:00.30 bitrate=   1.2kbits/s speed=0.0174x elapsed=0:00:17.22    \nframe=   20 fps=1.1 q=38.1 size=       0KiB time=00:00:00.30 bitrate=   1.2kbits/s speed=0.0169x elapsed=0:00:17.74    \nframe=   21 fps=1.1 q=34.8 size=       0KiB time=00:00:00.31 bitrate=   1.1kbits/s speed=0.0173x elapsed=0:00:18.27    \nframe=   21 fps=1.1 q=34.8 size=       0KiB time=00:00:00.31 bitrate=   1.1kbits/s speed=0.0168x elapsed=0:00:18.84    \nframe=   21 fps=1.1 q=34.8 size=       0KiB time=00:00:00.31 bitrate=   1.1kbits/s speed=0.0164x elapsed=0:00:19.36    \nframe=   22 fps=1.1 q=36.8 size=       0KiB time=00:00:00.33 bitrate=   1.1kbits/s speed=0.0167x elapsed=0:00:19.90    \nframe=   23 fps=1.1 q=38.1 size=       0KiB time=00:00:00.35 bitrate=   1.0kbits/s speed=0.0171x elapsed=0:00:20.42    \nframe=   23 fps=1.1 q=38.1 size=       0KiB time=00:00:00.35 bitrate=   1.0kbits/s speed=0.0167x elapsed=0:00:20.94    \nframe=   23 fps=1.1 q=38.1 size=       0KiB time=00:00:00.35 bitrate=   1.0kbits/s speed=0.0163x elapsed=0:00:21.46    \nframe=   24 fps=1.1 q=37.9 size=       0KiB time=00:00:00.36 bitrate=   1.0kbits/s speed=0.0167x elapsed=0:00:21.98    \nframe=   24 fps=1.1 q=37.9 size=       0KiB time=00:00:00.36 bitrate=   1.0kbits/s speed=0.0163x elapsed=0:00:22.52    \nframe=   24 fps=1.0 q=37.9 size=       0KiB time=00:00:00.36 bitrate=   1.0kbits/s speed=0.0159x elapsed=0:00:23.06    \nframe=   25 fps=1.1 q=33.9 size=       0KiB time=00:00:00.38 bitrate=   0.9kbits/s speed=0.0163x elapsed=0:00:23.58    \nframe=   26 fps=1.1 q=36.8 size=       0KiB time=00:00:00.40 bitrate=   0.9kbits/s speed=0.0166x elapsed=0:00:24.12    \nframe=   27 fps=1.1 q=37.8 size=       0KiB time=00:00:00.41 bitrate=   0.8kbits/s speed=0.0169x elapsed=0:00:24.66    \nframe=   27 fps=1.1 q=37.8 size=       0KiB time=00:00:00.41 bitrate=   0.8kbits/s speed=0.0165x elapsed=0:00:25.19    \nframe=   28 fps=1.1 q=37.1 size=       0KiB time=00:00:00.43 bitrate=   0.8kbits/s speed=0.0168x elapsed=0:00:25.74    \nframe=   28 fps=1.1 q=37.1 size=       0KiB time=00:00:00.43 bitrate=   0.8kbits/s speed=0.0165x elapsed=0:00:26.29    \nframe=   29 fps=1.1 q=37.1 size=       0KiB time=00:00:00.45 bitrate=   0.8kbits/s speed=0.0168x elapsed=0:00:26.84    \nframe=   29 fps=1.1 q=37.1 size=       0KiB time=00:00:00.45 bitrate=   0.8kbits/s speed=0.0164x elapsed=0:00:27.36    \nframe=   30 fps=1.1 q=34.0 size=       0KiB time=00:00:00.46 bitrate=   0.8kbits/s speed=0.0167x elapsed=0:00:27.89    \nframe=   30 fps=1.1 q=34.0 size=       0KiB time=00:00:00.46 bitrate=   0.8kbits/s speed=0.0164x elapsed=0:00:28.42    \nframe=   31 fps=1.1 q=36.0 size=       0KiB time=00:00:00.48 bitrate=   0.7kbits/s speed=0.0167x elapsed=0:00:28.97    \nframe=   32 fps=1.1 q=37.7 size=       0KiB time=00:00:00.50 bitrate=   0.7kbits/s speed=0.0169x elapsed=0:00:29.50    \nframe=   33 fps=1.1 q=37.7 size=       0KiB time=00:00:00.51 bitrate=   0.7kbits/s speed=0.0172x elapsed=0:00:30.03    \nframe=   33 fps=1.1 q=37.7 size=       0KiB time=00:00:00.51 bitrate=   0.7kbits/s speed=0.0169x elapsed=0:00:30.57    \nframe=   33 fps=1.1 q=37.7 size=       0KiB time=00:00:00.51 bitrate=   0.7kbits/s speed=0.0166x elapsed=0:00:31.09    \nframe=   33 fps=1.0 q=37.7 size=       0KiB time=00:00:00.51 bitrate=   0.7kbits/s speed=0.0163x elapsed=0:00:31.61    \nframe=   34 fps=1.1 q=37.6 size=       0KiB time=00:00:00.53 bitrate=   0.7kbits/s speed=0.0166x elapsed=0:00:32.16    \nframe=   34 fps=1.0 q=37.6 size=       0KiB time=00:00:00.53 bitrate=   0.7kbits/s speed=0.0163x elapsed=0:00:32.67    \nframe=   35 fps=1.1 q=33.5 size=       0KiB time=00:00:00.55 bitrate=   0.6kbits/s speed=0.0166x elapsed=0:00:33.19    \nframe=   36 fps=1.1 q=35.6 size=       0KiB time=00:00:00.56 bitrate=   0.6kbits/s speed=0.0168x elapsed=0:00:33.70    \nframe=   36 fps=1.1 q=35.6 size=       0KiB time=00:00:00.56 bitrate=   0.6kbits/s speed=0.0165x elapsed=0:00:34.24    \nframe=   37 fps=1.1 q=37.6 size=       0KiB time=00:00:00.58 bitrate=   0.6kbits/s speed=0.0168x elapsed=0:00:34.77    \nframe=   37 fps=1.0 q=37.6 size=       0KiB time=00:00:00.58 bitrate=   0.6kbits/s speed=0.0165x elapsed=0:00:35.29    \nframe=   37 fps=1.0 q=37.6 size=       0KiB time=00:00:00.58 bitrate=   0.6kbits/s speed=0.0163x elapsed=0:00:35.82    \nframe=   38 fps=1.0 q=37.8 size=       0KiB time=00:00:00.60 bitrate=   0.6kbits/s speed=0.0165x elapsed=0:00:36.35    \nframe=   39 fps=1.1 q=34.7 size=       0KiB time=00:00:00.61 bitrate=   0.6kbits/s speed=0.0167x elapsed=0:00:36.88    \nframe=   40 fps=1.1 q=36.1 size=       0KiB time=00:00:00.63 bitrate=   0.6kbits/s speed=0.0169x elapsed=0:00:37.41    \nframe=   41 fps=1.1 q=37.7 size=       0KiB time=00:00:00.65 bitrate=   0.5kbits/s speed=0.0171x elapsed=0:00:37.98    \nframe=   41 fps=1.1 q=37.7 size=       0KiB time=00:00:00.65 bitrate=   0.5kbits/s speed=0.0169x elapsed=0:00:38.52    \nframe=   42 fps=1.1 q=37.7 size=       0KiB time=00:00:00.66 bitrate=   0.5kbits/s speed=0.0171x elapsed=0:00:39.07    \nframe=   43 fps=1.1 q=34.7 size=       0KiB time=00:00:00.68 bitrate=   0.5kbits/s speed=0.0172x elapsed=0:00:39.62    \nframe=   43 fps=1.1 q=34.7 size=       0KiB time=00:00:00.68 bitrate=   0.5kbits/s speed=0.017x elapsed=0:00:40.24    \nframe=   43 fps=1.1 q=34.7 size=       0KiB time=00:00:00.68 bitrate=   0.5kbits/s speed=0.0168x elapsed=0:00:40.79    \nframe=   43 fps=1.0 q=34.7 size=       0KiB time=00:00:00.68 bitrate=   0.5kbits/s speed=0.0165x elapsed=0:00:41.33    \nframe=   43 fps=1.0 q=34.7 size=       0KiB time=00:00:00.68 bitrate=   0.5kbits/s speed=0.0163x elapsed=0:00:41.87    \nframe=   44 fps=1.0 q=36.2 size=       0KiB time=00:00:00.70 bitrate=   0.5kbits/s speed=0.0165x elapsed=0:00:42.46    \nframe=   44 fps=1.0 q=36.2 size=       0KiB time=00:00:00.70 bitrate=   0.5kbits/s speed=0.0163x elapsed=0:00:43.00    \nframe=   45 fps=1.0 q=37.7 size=       0KiB time=00:00:00.71 bitrate=   0.5kbits/s speed=0.0165x elapsed=0:00:43.54    \nframe=   45 fps=1.0 q=37.7 size=       0KiB time=00:00:00.71 bitrate=   0.5kbits/s speed=0.0163x elapsed=0:00:44.06    \nframe=   47 fps=1.1 q=36.3 size=       0KiB time=00:00:00.75 bitrate=   0.5kbits/s speed=0.0168x elapsed=0:00:44.59    \nframe=   47 fps=1.0 q=36.3 size=       0KiB time=00:00:00.75 bitrate=   0.5kbits/s speed=0.0166x elapsed=0:00:45.10    \nframe=   48 fps=1.1 q=37.6 size=       0KiB time=00:00:00.76 bitrate=   0.5kbits/s speed=0.0168x elapsed=0:00:45.62    \nframe=   48 fps=1.0 q=37.6 size=       0KiB time=00:00:00.76 bitrate=   0.5kbits/s speed=0.0166x elapsed=0:00:46.15    \nframe=   49 fps=1.0 q=37.6 size=       0KiB time=00:00:00.78 bitrate=   0.4kbits/s speed=0.0168x elapsed=0:00:46.67    \nframe=   50 fps=1.1 q=33.8 size=       0KiB time=00:00:00.80 bitrate=   0.4kbits/s speed=0.0169x elapsed=0:00:47.20    \nframe=   51 fps=1.1 q=36.2 size=       0KiB time=00:00:00.81 bitrate=   0.4kbits/s speed=0.0171x elapsed=0:00:47.72    \nframe=   51 fps=1.1 q=36.2 size=       0KiB time=00:00:00.81 bitrate=   0.4kbits/s speed=0.0169x elapsed=0:00:48.25    \nframe=   52 fps=1.1 q=37.8 size=       0KiB time=00:00:00.83 bitrate=   0.4kbits/s speed=0.0171x elapsed=0:00:48.77    \nframe=   53 fps=1.1 q=37.8 size=       0KiB time=00:00:00.85 bitrate=   0.4kbits/s speed=0.0172x elapsed=0:00:49.27    \nframe=   54 fps=1.1 q=34.0 size=       0KiB time=00:00:00.86 bitrate=   0.4kbits/s speed=0.0174x elapsed=0:00:49.80    \nframe=   55 fps=1.1 q=36.2 size=     256KiB time=00:00:00.88 bitrate=2374.5kbits/s speed=0.0176x elapsed=0:00:50.32    \nframe=   56 fps=1.1 q=37.7 size=     256KiB time=00:00:00.90 bitrate=2330.6kbits/s speed=0.0177x elapsed=0:00:50.82    \nframe=   56 fps=1.1 q=37.7 size=     256KiB time=00:00:00.90 bitrate=2330.6kbits/s speed=0.0175x elapsed=0:00:51.35    \nframe=   56 fps=1.1 q=37.7 size=     256KiB time=00:00:00.90 bitrate=2330.6kbits/s speed=0.0174x elapsed=0:00:51.87    \nframe=   57 fps=1.1 q=37.9 size=     256KiB time=00:00:00.91 bitrate=2288.2kbits/s speed=0.0175x elapsed=0:00:52.37    \nframe=   58 fps=1.1 q=34.4 size=     256KiB time=00:00:00.93 bitrate=2247.3kbits/s speed=0.0176x elapsed=0:00:52.89    \nframe=   59 fps=1.1 q=35.9 size=     256KiB time=00:00:00.95 bitrate=2207.9kbits/s speed=0.0178x elapsed=0:00:53.41    \nframe=   59 fps=1.1 q=35.9 size=     256KiB time=00:00:00.95 bitrate=2207.9kbits/s speed=0.0176x elapsed=0:00:53.92    \nframe=   60 fps=1.1 q=38.0 size=     256KiB time=00:00:00.96 bitrate=2169.8kbits/s speed=0.0178x elapsed=0:00:54.44    \nframe=   60 fps=1.1 q=38.0 size=     256KiB time=00:00:00.96 bitrate=2169.8kbits/s speed=0.0176x elapsed=0:00:54.96    \nframe=   61 fps=1.1 q=37.7 size=     256KiB time=00:00:00.98 bitrate=2133.1kbits/s speed=0.0177x elapsed=0:00:55.48    \nframe=   62 fps=1.1 q=33.7 size=     256KiB time=00:00:01.00 bitrate=2097.5kbits/s speed=0.0179x elapsed=0:00:56.00    \nframe=   63 fps=1.1 q=36.1 size=     256KiB time=00:00:01.01 bitrate=2063.1kbits/s speed=0.018x elapsed=0:00:56.51    \nframe=   64 fps=1.1 q=38.0 size=     256KiB time=00:00:01.03 bitrate=2029.8kbits/s speed=0.0181x elapsed=0:00:57.03    \nframe=   65 fps=1.1 q=37.7 size=     256KiB time=00:00:01.05 bitrate=1997.6kbits/s speed=0.0182x elapsed=0:00:57.55    \nframe=   65 fps=1.1 q=37.7 size=     256KiB time=00:00:01.05 bitrate=1997.6kbits/s speed=0.0181x elapsed=0:00:58.06    \nframe=   66 fps=1.1 q=33.8 size=     256KiB time=00:00:01.06 bitrate=1966.4kbits/s speed=0.0182x elapsed=0:00:58.59    \nframe=   67 fps=1.1 q=35.5 size=     256KiB time=00:00:01.08 bitrate=1936.2kbits/s speed=0.0183x elapsed=0:00:59.10    \nframe=   67 fps=1.1 q=35.5 size=     256KiB time=00:00:01.08 bitrate=1936.2kbits/s speed=0.0182x elapsed=0:00:59.64    \nframe=   68 fps=1.1 q=37.6 size=     256KiB time=00:00:01.10 bitrate=1906.8kbits/s speed=0.0183x elapsed=0:01:00.17    \nframe=   69 fps=1.1 q=38.0 size=     256KiB time=00:00:01.11 bitrate=1878.4kbits/s speed=0.0184x elapsed=0:01:00.68    \nframe=   69 fps=1.1 q=38.0 size=     256KiB time=00:00:01.11 bitrate=1878.4kbits/s speed=0.0182x elapsed=0:01:01.20    \nframe=   70 fps=1.1 q=34.6 size=     256KiB time=00:00:01.13 bitrate=1850.7kbits/s speed=0.0184x elapsed=0:01:01.71    \nframe=   71 fps=1.1 q=35.8 size=     256KiB time=00:00:01.15 bitrate=1823.9kbits/s speed=0.0185x elapsed=0:01:02.23    \nframe=   72 fps=1.1 q=37.7 size=     256KiB time=00:00:01.16 bitrate=1797.9kbits/s speed=0.0186x elapsed=0:01:02.75    \nframe=   72 fps=1.1 q=37.7 size=     256KiB time=00:00:01.16 bitrate=1797.9kbits/s speed=0.0184x elapsed=0:01:03.26    \nframe=   73 fps=1.1 q=37.9 size=     256KiB time=00:00:01.18 bitrate=1772.5kbits/s speed=0.0186x elapsed=0:01:03.78    \nframe=   74 fps=1.2 q=33.9 size=     256KiB time=00:00:01.20 bitrate=1747.9kbits/s speed=0.0187x elapsed=0:01:04.30    \nframe=   75 fps=1.2 q=36.6 size=     256KiB time=00:00:01.21 bitrate=1724.0kbits/s speed=0.0188x elapsed=0:01:04.82    \nframe=   76 fps=1.2 q=37.8 size=     256KiB time=00:00:01.23 bitrate=1700.7kbits/s speed=0.0189x elapsed=0:01:05.34    \nframe=   77 fps=1.2 q=37.6 size=     256KiB time=00:00:01.25 bitrate=1678.0kbits/s speed=0.019x elapsed=0:01:05.86    \nframe=   78 fps=1.2 q=37.9 size=     256KiB time=00:00:01.26 bitrate=1655.9kbits/s speed=0.0191x elapsed=0:01:06.39    \nframe=   78 fps=1.2 q=37.9 size=     256KiB time=00:00:01.26 bitrate=1655.9kbits/s speed=0.0189x elapsed=0:01:06.92    \nframe=   78 fps=1.2 q=37.9 size=     256KiB time=00:00:01.26 bitrate=1655.9kbits/s speed=0.0188x elapsed=0:01:07.50    \nframe=   80 fps=1.2 q=36.1 size=     256KiB time=00:00:01.30 bitrate=1613.5kbits/s speed=0.0191x elapsed=0:01:08.02    \nframe=   81 fps=1.2 q=38.3 size=     256KiB time=00:00:01.31 bitrate=1593.0kbits/s speed=0.0192x elapsed=0:01:08.57    \nframe=   82 fps=1.2 q=38.1 size=     256KiB time=00:00:01.33 bitrate=1573.1kbits/s speed=0.0193x elapsed=0:01:09.11    \nframe=   82 fps=1.2 q=38.1 size=     256KiB time=00:00:01.33 bitrate=1573.1kbits/s speed=0.0191x elapsed=0:01:09.63    \nframe=   82 fps=1.2 q=38.1 size=     256KiB time=00:00:01.33 bitrate=1573.1kbits/s speed=0.019x elapsed=0:01:10.18    \nframe=   83 fps=1.2 q=34.6 size=     256KiB time=00:00:01.35 bitrate=1553.7kbits/s speed=0.0191x elapsed=0:01:10.69    \nframe=   84 fps=1.2 q=36.1 size=     256KiB time=00:00:01.36 bitrate=1534.8kbits/s speed=0.0192x elapsed=0:01:11.20    \nframe=   84 fps=1.2 q=36.1 size=     256KiB time=00:00:01.36 bitrate=1534.8kbits/s speed=0.0191x elapsed=0:01:11.72    \nframe=   85 fps=1.2 q=38.3 size=     256KiB time=00:00:01.38 bitrate=1516.3kbits/s speed=0.0191x elapsed=0:01:12.24    \nframe=   85 fps=1.2 q=38.3 size=     256KiB time=00:00:01.38 bitrate=1516.3kbits/s speed=0.019x elapsed=0:01:12.78    \nframe=   86 fps=1.2 q=38.3 size=     256KiB time=00:00:01.40 bitrate=1498.2kbits/s speed=0.0191x elapsed=0:01:13.31    \nframe=   86 fps=1.2 q=38.3 size=     256KiB time=00:00:01.40 bitrate=1498.2kbits/s speed=0.019x elapsed=0:01:13.84    \nframe=   87 fps=1.2 q=34.7 size=     256KiB time=00:00:01.41 bitrate=1480.6kbits/s speed=0.019x elapsed=0:01:14.37    \nframe=   87 fps=1.2 q=34.7 size=     256KiB time=00:00:01.41 bitrate=1480.6kbits/s speed=0.0189x elapsed=0:01:14.89    \nframe=   87 fps=1.2 q=34.7 size=     256KiB time=00:00:01.41 bitrate=1480.6kbits/s speed=0.0188x elapsed=0:01:15.43    \nframe=   87 fps=1.1 q=34.7 size=     256KiB time=00:00:01.41 bitrate=1480.6kbits/s speed=0.0186x elapsed=0:01:15.99    \nframe=   88 fps=1.1 q=36.8 size=     256KiB time=00:00:01.41 bitrate=1480.6kbits/s speed=0.0185x elapsed=0:01:16.62    \nframe=   88 fps=1.1 q=36.8 size=     256KiB time=00:00:01.43 bitrate=1463.4kbits/s speed=0.0185x elapsed=0:01:17.27    \nframe=   88 fps=1.1 q=36.8 size=     256KiB time=00:00:01.43 bitrate=1463.4kbits/s speed=0.0184x elapsed=0:01:17.84    \nframe=   88 fps=1.1 q=36.8 size=     256KiB time=00:00:01.43 bitrate=1463.4kbits/s speed=0.0183x elapsed=0:01:18.39    \nframe=   88 fps=1.1 q=36.8 size=     256KiB time=00:00:01.43 bitrate=1463.4kbits/s speed=0.0182x elapsed=0:01:18.92    \nframe=   89 fps=1.1 q=37.6 size=     256KiB time=00:00:01.45 bitrate=1446.6kbits/s speed=0.0183x elapsed=0:01:19.44    \nframe=   89 fps=1.1 q=37.6 size=     256KiB time=00:00:01.45 bitrate=1446.6kbits/s speed=0.0181x elapsed=0:01:19.99    \nframe=   89 fps=1.1 q=37.6 size=     256KiB time=00:00:01.45 bitrate=1446.6kbits/s speed=0.018x elapsed=0:01:20.51    \nframe=   90 fps=1.1 q=37.8 size=     256KiB time=00:00:01.46 bitrate=1430.1kbits/s speed=0.0181x elapsed=0:01:21.04    \nframe=   90 fps=1.1 q=37.8 size=     256KiB time=00:00:01.46 bitrate=1430.1kbits/s speed=0.018x elapsed=0:01:21.56    \nframe=   90 fps=1.1 q=37.8 size=     256KiB time=00:00:01.46 bitrate=1430.1kbits/s speed=0.0179x elapsed=0:01:22.08    \nframe=   91 fps=1.1 q=34.3 size=     256KiB time=00:00:01.48 bitrate=1414.0kbits/s speed=0.018x elapsed=0:01:22.60    \nframe=   92 fps=1.1 q=36.3 size=     256KiB time=00:00:01.50 bitrate=1398.3kbits/s speed=0.018x elapsed=0:01:23.10    \nframe=   92 fps=1.1 q=36.3 size=     256KiB time=00:00:01.50 bitrate=1398.3kbits/s speed=0.0179x elapsed=0:01:23.63    \nframe=   92 fps=1.1 q=36.3 size=     256KiB time=00:00:01.50 bitrate=1398.3kbits/s speed=0.0178x elapsed=0:01:24.18    \nframe=   93 fps=1.1 q=37.8 size=     256KiB time=00:00:01.50 bitrate=1398.3kbits/s speed=0.0177x elapsed=0:01:24.70    \nframe=   93 fps=1.1 q=37.8 size=     256KiB time=00:00:01.51 bitrate=1383.0kbits/s speed=0.0178x elapsed=0:01:25.24    \nframe=   94 fps=1.1 q=37.7 size=     256KiB time=00:00:01.53 bitrate=1367.9kbits/s speed=0.0179x elapsed=0:01:25.76    \nframe=   95 fps=1.1 q=34.3 size=     256KiB time=00:00:01.55 bitrate=1353.2kbits/s speed=0.018x elapsed=0:01:26.28    \nframe=   96 fps=1.1 q=36.3 size=     256KiB time=00:00:01.56 bitrate=1338.8kbits/s speed=0.018x elapsed=0:01:26.80    \nframe=   96 fps=1.1 q=36.3 size=     256KiB time=00:00:01.56 bitrate=1338.8kbits/s speed=0.0179x elapsed=0:01:27.31    \nframe=   96 fps=1.1 q=36.3 size=     256KiB time=00:00:01.56 bitrate=1338.8kbits/s speed=0.0178x elapsed=0:01:27.83    \nframe=   97 fps=1.1 q=37.6 size=     256KiB time=00:00:01.58 bitrate=1324.7kbits/s speed=0.0179x elapsed=0:01:28.35    \nframe=   97 fps=1.1 q=37.6 size=     256KiB time=00:00:01.58 bitrate=1324.7kbits/s speed=0.0178x elapsed=0:01:28.89    \nframe=   98 fps=1.1 q=37.5 size=     256KiB time=00:00:01.60 bitrate=1310.9kbits/s speed=0.0179x elapsed=0:01:29.43    \nframe=   98 fps=1.1 q=37.5 size=     256KiB time=00:00:01.60 bitrate=1310.9kbits/s speed=0.0178x elapsed=0:01:29.95    \nframe=   99 fps=1.1 q=34.5 size=     256KiB time=00:00:01.61 bitrate=1297.4kbits/s speed=0.0179x elapsed=0:01:30.46    \nframe=  100 fps=1.1 q=37.6 size=     256KiB time=00:00:01.63 bitrate=1284.2kbits/s speed=0.018x elapsed=0:01:30.98    \nframe=  100 fps=1.1 q=37.6 size=     256KiB time=00:00:01.63 bitrate=1284.2kbits/s speed=0.0178x elapsed=0:01:31.50    \nframe=  101 fps=1.1 q=34.7 size=     256KiB time=00:00:01.65 bitrate=1271.2kbits/s speed=0.0179x elapsed=0:01:32.02    \nframe=  102 fps=1.1 q=36.1 size=     256KiB time=00:00:01.66 bitrate=1258.5kbits/s speed=0.018x elapsed=0:01:32.57    \nframe=  102 fps=1.1 q=36.1 size=     256KiB time=00:00:01.66 bitrate=1258.5kbits/s speed=0.0179x elapsed=0:01:33.10    \nframe=  102 fps=1.1 q=36.1 size=     256KiB time=00:00:01.66 bitrate=1258.5kbits/s speed=0.0178x elapsed=0:01:33.60    \nframe=  103 fps=1.1 q=37.7 size=     256KiB time=00:00:01.68 bitrate=1246.0kbits/s speed=0.0179x elapsed=0:01:34.14    \nframe=  103 fps=1.1 q=37.7 size=     256KiB time=00:00:01.68 bitrate=1246.0kbits/s speed=0.0178x elapsed=0:01:34.68    \nframe=  104 fps=1.1 q=37.6 size=     256KiB time=00:00:01.70 bitrate=1233.8kbits/s speed=0.0179x elapsed=0:01:35.21    \nframe=  105 fps=1.1 q=34.8 size=     256KiB time=00:00:01.71 bitrate=1221.8kbits/s speed=0.0179x elapsed=0:01:35.74    \nframe=  106 fps=1.1 q=36.5 size=     512KiB time=00:00:01.73 bitrate=2420.0kbits/s speed=0.018x elapsed=0:01:36.27    \nframe=  107 fps=1.1 q=37.8 size=     512KiB time=00:00:01.75 bitrate=2396.9kbits/s speed=0.0181x elapsed=0:01:36.83    \nframe=  107 fps=1.1 q=37.8 size=     512KiB time=00:00:01.75 bitrate=2396.9kbits/s speed=0.018x elapsed=0:01:37.37    \nframe=  107 fps=1.1 q=37.8 size=     512KiB time=00:00:01.75 bitrate=2396.9kbits/s speed=0.0179x elapsed=0:01:37.89    \nframe=  107 fps=1.1 q=37.8 size=     512KiB time=00:00:01.75 bitrate=2396.9kbits/s speed=0.0178x elapsed=0:01:38.43    \nframe=  108 fps=1.1 q=37.6 size=     512KiB time=00:00:01.76 bitrate=2374.3kbits/s speed=0.0179x elapsed=0:01:38.93    \nframe=  109 fps=1.1 q=34.8 size=     512KiB time=00:00:01.78 bitrate=2352.1kbits/s speed=0.0179x elapsed=0:01:39.45    \nframe=  110 fps=1.1 q=36.4 size=     512KiB time=00:00:01.80 bitrate=2330.4kbits/s speed=0.018x elapsed=0:01:39.99    \nframe=  110 fps=1.1 q=36.4 size=     512KiB time=00:00:01.80 bitrate=2330.4kbits/s speed=0.0179x elapsed=0:01:40.52    \nframe=  111 fps=1.1 q=37.8 size=     512KiB time=00:00:01.81 bitrate=2309.0kbits/s speed=0.018x elapsed=0:01:41.05    \nframe=  111 fps=1.1 q=37.8 size=     512KiB time=00:00:01.81 bitrate=2309.0kbits/s speed=0.0179x elapsed=0:01:41.57    \nframe=  112 fps=1.1 q=37.8 size=     512KiB time=00:00:01.83 bitrate=2288.0kbits/s speed=0.018x elapsed=0:01:42.07    \nframe=  113 fps=1.1 q=35.0 size=     512KiB time=00:00:01.85 bitrate=2267.4kbits/s speed=0.018x elapsed=0:01:42.59    \nframe=  113 fps=1.1 q=35.0 size=     512KiB time=00:00:01.85 bitrate=2267.4kbits/s speed=0.0179x elapsed=0:01:43.12    \nframe=  114 fps=1.1 q=36.4 size=     512KiB time=00:00:01.86 bitrate=2247.1kbits/s speed=0.018x elapsed=0:01:43.66    \nframe=  114 fps=1.1 q=36.4 size=     512KiB time=00:00:01.86 bitrate=2247.1kbits/s speed=0.0179x elapsed=0:01:44.18    \nframe=  114 fps=1.1 q=36.4 size=     512KiB time=00:00:01.86 bitrate=2247.1kbits/s speed=0.0178x elapsed=0:01:44.71    \nframe=  115 fps=1.1 q=37.8 size=     512KiB time=00:00:01.88 bitrate=2227.3kbits/s speed=0.0179x elapsed=0:01:45.25    \nframe=  115 fps=1.1 q=37.8 size=     512KiB time=00:00:01.88 bitrate=2227.3kbits/s speed=0.0178x elapsed=0:01:45.79    \nframe=  116 fps=1.1 q=37.9 size=     512KiB time=00:00:01.90 bitrate=2207.7kbits/s speed=0.0179x elapsed=0:01:46.31    \nframe=  117 fps=1.1 q=35.2 size=     512KiB time=00:00:01.91 bitrate=2188.5kbits/s speed=0.0179x elapsed=0:01:46.84    \nframe=  117 fps=1.1 q=35.2 size=     512KiB time=00:00:01.91 bitrate=2188.5kbits/s speed=0.0178x elapsed=0:01:47.39    \nframe=  118 fps=1.1 q=36.6 size=     512KiB time=00:00:01.93 bitrate=2169.7kbits/s speed=0.0179x elapsed=0:01:47.93    \nframe=  120 fps=1.1 q=37.9 size=     512KiB time=00:00:01.96 bitrate=2132.9kbits/s speed=0.0181x elapsed=0:01:48.47    \nframe=  120 fps=1.1 q=37.9 size=     512KiB time=00:00:01.96 bitrate=2132.9kbits/s speed=0.018x elapsed=0:01:48.99    \nframe=  121 fps=1.1 q=35.2 size=     512KiB time=00:00:01.98 bitrate=2115.0kbits/s speed=0.0181x elapsed=0:01:49.51    \nframe=  122 fps=1.1 q=36.7 size=     512KiB time=00:00:02.00 bitrate=2097.3kbits/s speed=0.0182x elapsed=0:01:50.06    \nframe=  122 fps=1.1 q=36.7 size=     512KiB time=00:00:02.00 bitrate=2097.3kbits/s speed=0.0181x elapsed=0:01:50.57    \nframe=  124 fps=1.1 q=38.0 size=     512KiB time=00:00:02.03 bitrate=2062.9kbits/s speed=0.0183x elapsed=0:01:51.09    \nframe=  124 fps=1.1 q=38.0 size=     512KiB time=00:00:02.03 bitrate=2062.9kbits/s speed=0.0182x elapsed=0:01:51.61    \nframe=  124 fps=1.1 q=38.0 size=     512KiB time=00:00:02.03 bitrate=2062.9kbits/s speed=0.0181x elapsed=0:01:52.12    \nframe=  125 fps=1.1 q=35.4 size=     512KiB time=00:00:02.05 bitrate=2046.2kbits/s speed=0.0182x elapsed=0:01:52.66    \nframe=  126 fps=1.1 q=36.6 size=     512KiB time=00:00:02.06 bitrate=2029.7kbits/s speed=0.0183x elapsed=0:01:53.21    \nframe=  126 fps=1.1 q=36.6 size=     512KiB time=00:00:02.06 bitrate=2029.7kbits/s speed=0.0182x elapsed=0:01:53.72    \nframe=  126 fps=1.1 q=36.6 size=     512KiB time=00:00:02.06 bitrate=2029.7kbits/s speed=0.0181x elapsed=0:01:54.25    \nframe=  129 fps=1.1 q=35.3 size=     512KiB time=00:00:02.11 bitrate=1981.7kbits/s speed=0.0184x elapsed=0:01:54.76    \nframe=  129 fps=1.1 q=35.3 size=     512KiB time=00:00:02.11 bitrate=1981.7kbits/s speed=0.0184x elapsed=0:01:55.29    \nframe=  130 fps=1.1 q=36.6 size=     512KiB time=00:00:02.13 bitrate=1966.2kbits/s speed=0.0184x elapsed=0:01:55.82    \nframe=  132 fps=1.1 q=38.1 size=     512KiB time=00:00:02.16 bitrate=1936.0kbits/s speed=0.0186x elapsed=0:01:56.35    \nframe=  132 fps=1.1 q=38.1 size=     512KiB time=00:00:02.16 bitrate=1936.0kbits/s speed=0.0185x elapsed=0:01:56.87    \nframe=  132 fps=1.1 q=38.1 size=     512KiB time=00:00:02.16 bitrate=1936.0kbits/s speed=0.0185x elapsed=0:01:57.42    \nframe=  133 fps=1.1 q=35.7 size=     512KiB time=00:00:02.18 bitrate=1921.2kbits/s speed=0.0185x elapsed=0:01:57.94    \nframe=  133 fps=1.1 q=35.7 size=     512KiB time=00:00:02.18 bitrate=1921.2kbits/s speed=0.0184x elapsed=0:01:58.46    \nframe=  133 fps=1.1 q=35.7 size=     512KiB time=00:00:02.18 bitrate=1921.2kbits/s speed=0.0184x elapsed=0:01:58.96    \nframe=  134 fps=1.1 q=36.8 size=     512KiB time=00:00:02.20 bitrate=1906.7kbits/s speed=0.0184x elapsed=0:01:59.49    \nframe=  135 fps=1.1 q=38.2 size=     512KiB time=00:00:02.21 bitrate=1892.3kbits/s speed=0.0185x elapsed=0:02:00.02    \nframe=  135 fps=1.1 q=38.2 size=     512KiB time=00:00:02.21 bitrate=1892.3kbits/s speed=0.0184x elapsed=0:02:00.55    \nframe=  136 fps=1.1 q=38.1 size=     512KiB time=00:00:02.23 bitrate=1878.2kbits/s speed=0.0184x elapsed=0:02:01.07    \nframe=  137 fps=1.1 q=35.7 size=     512KiB time=00:00:02.25 bitrate=1864.3kbits/s speed=0.0185x elapsed=0:02:01.58    \nframe=  137 fps=1.1 q=35.7 size=     512KiB time=00:00:02.25 bitrate=1864.3kbits/s speed=0.0184x elapsed=0:02:02.09    \nframe=  137 fps=1.1 q=35.7 size=     512KiB time=00:00:02.25 bitrate=1864.3kbits/s speed=0.0184x elapsed=0:02:02.61    \nframe=  138 fps=1.1 q=36.9 size=     512KiB time=00:00:02.26 bitrate=1850.6kbits/s speed=0.0184x elapsed=0:02:03.12    \nframe=  138 fps=1.1 q=36.9 size=     512KiB time=00:00:02.26 bitrate=1850.6kbits/s speed=0.0183x elapsed=0:02:03.64    \nframe=  139 fps=1.1 q=38.2 size=     512KiB time=00:00:02.28 bitrate=1837.1kbits/s speed=0.0184x elapsed=0:02:04.18    \nframe=  139 fps=1.1 q=38.2 size=     512KiB time=00:00:02.28 bitrate=1837.1kbits/s speed=0.0183x elapsed=0:02:04.75    \nframe=  139 fps=1.1 q=38.2 size=     512KiB time=00:00:02.28 bitrate=1837.1kbits/s speed=0.0182x elapsed=0:02:05.32    \nframe=  139 fps=1.1 q=38.2 size=     512KiB time=00:00:02.28 bitrate=1837.1kbits/s speed=0.0181x elapsed=0:02:05.85    \nframe=  139 fps=1.1 q=38.2 size=     512KiB time=00:00:02.28 bitrate=1837.1kbits/s speed=0.0181x elapsed=0:02:06.38    \nframe=  139 fps=1.1 q=38.2 size=     512KiB time=00:00:02.28 bitrate=1837.1kbits/s speed=0.018x elapsed=0:02:06.91    \nframe=  142 fps=1.1 q=37.1 size=     512KiB time=00:00:02.33 bitrate=1797.7kbits/s speed=0.0183x elapsed=0:02:07.42    \nframe=  142 fps=1.1 q=37.1 size=     512KiB time=00:00:02.33 bitrate=1797.7kbits/s speed=0.0182x elapsed=0:02:07.93    \nframe=  143 fps=1.1 q=38.4 size=     512KiB time=00:00:02.35 bitrate=1785.0kbits/s speed=0.0183x elapsed=0:02:08.46    \nframe=  145 fps=1.1 q=36.0 size=     512KiB time=00:00:02.38 bitrate=1760.0kbits/s speed=0.0185x elapsed=0:02:08.99    \nframe=  145 fps=1.1 q=36.0 size=     512KiB time=00:00:02.38 bitrate=1760.0kbits/s speed=0.0184x elapsed=0:02:09.51    \nframe=  147 fps=1.1 q=38.4 size=     512KiB time=00:00:02.41 bitrate=1735.7kbits/s speed=0.0186x elapsed=0:02:10.04    \nframe=  148 fps=1.1 q=38.4 size=     512KiB time=00:00:02.43 bitrate=1723.8kbits/s speed=0.0186x elapsed=0:02:10.57    \nframe=  148 fps=1.1 q=38.4 size=     512KiB time=00:00:02.43 bitrate=1723.8kbits/s speed=0.0186x elapsed=0:02:11.07    \nframe=  150 fps=1.1 q=37.1 size=     512KiB time=00:00:02.46 bitrate=1700.5kbits/s speed=0.0187x elapsed=0:02:11.60    \nframe=  151 fps=1.1 q=38.5 size=     512KiB time=00:00:02.48 bitrate=1689.1kbits/s speed=0.0188x elapsed=0:02:12.12    \nframe=  151 fps=1.1 q=38.5 size=     512KiB time=00:00:02.48 bitrate=1689.1kbits/s speed=0.0187x elapsed=0:02:12.64    \nframe=  152 fps=1.1 q=38.4 size=     512KiB time=00:00:02.50 bitrate=1677.9kbits/s speed=0.0188x elapsed=0:02:13.19    \nframe=  152 fps=1.1 q=38.4 size=     512KiB time=00:00:02.50 bitrate=1677.9kbits/s speed=0.0187x elapsed=0:02:13.72    \nframe=  153 fps=1.1 q=35.9 size=     512KiB time=00:00:02.51 bitrate=1666.8kbits/s speed=0.0187x elapsed=0:02:14.25    \nframe=  154 fps=1.1 q=37.1 size=     768KiB time=00:00:02.53 bitrate=2483.6kbits/s speed=0.0188x elapsed=0:02:14.78    \nframe=  154 fps=1.1 q=37.1 size=     768KiB time=00:00:02.53 bitrate=2483.6kbits/s speed=0.0187x elapsed=0:02:15.32    \nframe=  154 fps=1.1 q=37.1 size=     768KiB time=00:00:02.53 bitrate=2483.6kbits/s speed=0.0186x elapsed=0:02:15.85    \nframe=  156 fps=1.1 q=38.5 size=     768KiB time=00:00:02.56 bitrate=2451.4kbits/s speed=0.0188x elapsed=0:02:16.38    \nframe=  156 fps=1.1 q=38.5 size=     768KiB time=00:00:02.56 bitrate=2451.4kbits/s speed=0.0187x elapsed=0:02:16.91    \nframe=  156 fps=1.1 q=38.5 size=     768KiB time=00:00:02.56 bitrate=2451.4kbits/s speed=0.0187x elapsed=0:02:17.44    \nframe=  156 fps=1.1 q=38.5 size=     768KiB time=00:00:02.56 bitrate=2451.4kbits/s speed=0.0186x elapsed=0:02:17.96    \nframe=  157 fps=1.1 q=35.9 size=     768KiB time=00:00:02.58 bitrate=2435.5kbits/s speed=0.0187x elapsed=0:02:18.48    \nframe=  157 fps=1.1 q=35.9 size=     768KiB time=00:00:02.58 bitrate=2435.5kbits/s speed=0.0186x elapsed=0:02:19.00    \nframe=  158 fps=1.1 q=37.2 size=     768KiB time=00:00:02.60 bitrate=2419.9kbits/s speed=0.0186x elapsed=0:02:19.51    \nframe=  160 fps=1.1 q=38.5 size=     768KiB time=00:00:02.63 bitrate=2389.3kbits/s speed=0.0188x elapsed=0:02:20.03    \nframe=  162 fps=1.2 q=37.2 size=     768KiB time=00:00:02.66 bitrate=2359.4kbits/s speed=0.019x elapsed=0:02:20.56    \nframe=  162 fps=1.1 q=37.2 size=     768KiB time=00:00:02.66 bitrate=2359.4kbits/s speed=0.0189x elapsed=0:02:21.08    \nframe=  164 fps=1.2 q=39.3 size=     768KiB time=00:00:02.70 bitrate=2330.3kbits/s speed=0.0191x elapsed=0:02:21.63    \nframe=  165 fps=1.2 q=36.0 size=     768KiB time=00:00:02.71 bitrate=2316.0kbits/s speed=0.0191x elapsed=0:02:22.19    \nframe=  165 fps=1.2 q=36.0 size=     768KiB time=00:00:02.71 bitrate=2316.0kbits/s speed=0.019x elapsed=0:02:22.70    \nframe=  165 fps=1.2 q=36.0 size=     768KiB time=00:00:02.71 bitrate=2316.0kbits/s speed=0.019x elapsed=0:02:23.24    \nframe=  167 fps=1.2 q=39.3 size=     768KiB time=00:00:02.75 bitrate=2287.9kbits/s speed=0.0191x elapsed=0:02:23.78    \nframe=  167 fps=1.2 q=39.3 size=     768KiB time=00:00:02.75 bitrate=2287.9kbits/s speed=0.0191x elapsed=0:02:24.30    \nframe=  167 fps=1.2 q=39.3 size=     768KiB time=00:00:02.75 bitrate=2287.9kbits/s speed=0.019x elapsed=0:02:24.84    \nframe=  167 fps=1.1 q=39.3 size=     768KiB time=00:00:02.75 bitrate=2287.9kbits/s speed=0.0189x elapsed=0:02:25.38    \nframe=  168 fps=1.2 q=39.3 size=     768KiB time=00:00:02.76 bitrate=2274.1kbits/s speed=0.019x elapsed=0:02:25.89    \nframe=  169 fps=1.2 q=35.8 size=     768KiB time=00:00:02.78 bitrate=2260.5kbits/s speed=0.019x elapsed=0:02:26.42    \nframe=  169 fps=1.2 q=35.8 size=     768KiB time=00:00:02.78 bitrate=2260.5kbits/s speed=0.0189x elapsed=0:02:26.95    \nframe=  170 fps=1.2 q=38.0 size=     768KiB time=00:00:02.80 bitrate=2247.1kbits/s speed=0.019x elapsed=0:02:27.48    \nframe=  171 fps=1.2 q=39.3 size=     768KiB time=00:00:02.81 bitrate=2233.8kbits/s speed=0.019x elapsed=0:02:27.99    \nframe=  171 fps=1.2 q=39.3 size=     768KiB time=00:00:02.81 bitrate=2233.8kbits/s speed=0.019x elapsed=0:02:28.52    \nframe=  171 fps=1.1 q=39.3 size=     768KiB time=00:00:02.81 bitrate=2233.8kbits/s speed=0.0189x elapsed=0:02:29.06    \nframe=  173 fps=1.2 q=35.7 size=     768KiB time=00:00:02.85 bitrate=2207.7kbits/s speed=0.019x elapsed=0:02:29.62    \nframe=  174 fps=1.2 q=37.9 size=     768KiB time=00:00:02.86 bitrate=2194.8kbits/s speed=0.0191x elapsed=0:02:30.14    \nframe=  175 fps=1.2 q=39.2 size=     768KiB time=00:00:02.88 bitrate=2182.1kbits/s speed=0.0191x elapsed=0:02:30.65    \nframe=  176 fps=1.2 q=39.2 size=     768KiB time=00:00:02.90 bitrate=2169.6kbits/s speed=0.0192x elapsed=0:02:31.20    \nframe=  177 fps=1.2 q=35.8 size=     768KiB time=00:00:02.91 bitrate=2157.2kbits/s speed=0.0192x elapsed=0:02:31.72    \nframe=  177 fps=1.2 q=35.8 size=     768KiB time=00:00:02.91 bitrate=2157.2kbits/s speed=0.0192x elapsed=0:02:32.26    \nframe=  178 fps=1.2 q=37.8 size=     768KiB time=00:00:02.93 bitrate=2144.9kbits/s speed=0.0192x elapsed=0:02:32.77    \nframe=  178 fps=1.2 q=37.8 size=     768KiB time=00:00:02.93 bitrate=2144.9kbits/s speed=0.0191x elapsed=0:02:33.31    \nframe=  180 fps=1.2 q=39.1 size=     768KiB time=00:00:02.96 bitrate=2120.8kbits/s speed=0.0193x elapsed=0:02:33.83    \nframe=  180 fps=1.2 q=39.1 size=     768KiB time=00:00:02.96 bitrate=2120.8kbits/s speed=0.0192x elapsed=0:02:34.37    \nframe=  181 fps=1.2 q=35.4 size=     768KiB time=00:00:02.98 bitrate=2109.0kbits/s speed=0.0193x elapsed=0:02:34.90    \nframe=  182 fps=1.2 q=37.8 size=     768KiB time=00:00:03.00 bitrate=2097.3kbits/s speed=0.0193x elapsed=0:02:35.42    \nframe=  182 fps=1.2 q=37.8 size=     768KiB time=00:00:03.00 bitrate=2097.3kbits/s speed=0.0192x elapsed=0:02:35.96    \nframe=  184 fps=1.2 q=35.3 size=     768KiB time=00:00:03.01 bitrate=2085.7kbits/s speed=0.0193x elapsed=0:02:36.48    \nframe=  185 fps=1.2 q=37.7 size=     768KiB time=00:00:03.05 bitrate=2062.9kbits/s speed=0.0194x elapsed=0:02:37.02    \nframe=  185 fps=1.2 q=37.7 size=     768KiB time=00:00:03.05 bitrate=2062.9kbits/s speed=0.0194x elapsed=0:02:37.54    \nframe=  185 fps=1.2 q=37.7 size=     768KiB time=00:00:03.05 bitrate=2062.9kbits/s speed=0.0193x elapsed=0:02:38.06    \nframe=  187 fps=1.2 q=39.0 size=     768KiB time=00:00:03.08 bitrate=2040.6kbits/s speed=0.0194x elapsed=0:02:38.59    \nframe=  188 fps=1.2 q=35.0 size=     768KiB time=00:00:03.10 bitrate=2029.6kbits/s speed=0.0195x elapsed=0:02:39.11    \nframe=  188 fps=1.2 q=35.0 size=     768KiB time=00:00:03.10 bitrate=2029.6kbits/s speed=0.0194x elapsed=0:02:39.68    \nframe=  188 fps=1.2 q=35.0 size=     768KiB time=00:00:03.10 bitrate=2029.6kbits/s speed=0.0193x elapsed=0:02:40.21    \nframe=  189 fps=1.2 q=37.6 size=     768KiB time=00:00:03.11 bitrate=2018.8kbits/s speed=0.0194x elapsed=0:02:40.75    \nframe=  189 fps=1.2 q=37.6 size=     768KiB time=00:00:03.11 bitrate=2018.8kbits/s speed=0.0193x elapsed=0:02:41.27    \nframe=  191 fps=1.2 q=39.0 size=     768KiB time=00:00:03.15 bitrate=1997.4kbits/s speed=0.0195x elapsed=0:02:41.79    \nframe=  192 fps=1.2 q=35.3 size=     768KiB time=00:00:03.16 bitrate=1986.9kbits/s speed=0.0195x elapsed=0:02:42.32    \nframe=  192 fps=1.2 q=35.3 size=     768KiB time=00:00:03.16 bitrate=1986.9kbits/s speed=0.0194x elapsed=0:02:42.84    \nframe=  192 fps=1.2 q=35.3 size=     768KiB time=00:00:03.16 bitrate=1986.9kbits/s speed=0.0194x elapsed=0:02:43.36    \nframe=  193 fps=1.2 q=37.0 size=     768KiB time=00:00:03.18 bitrate=1976.5kbits/s speed=0.0194x elapsed=0:02:43.88    \nframe=  194 fps=1.2 q=38.9 size=     768KiB time=00:00:03.20 bitrate=1966.2kbits/s speed=0.0195x elapsed=0:02:44.43    \nframe=  195 fps=1.2 q=38.8 size=     768KiB time=00:00:03.21 bitrate=1956.0kbits/s speed=0.0195x elapsed=0:02:44.95    \nframe=  195 fps=1.2 q=38.8 size=     768KiB time=00:00:03.21 bitrate=1956.0kbits/s speed=0.0194x elapsed=0:02:45.47    \nframe=  198 fps=1.2 q=36.7 size=     768KiB time=00:00:03.26 bitrate=1926.1kbits/s speed=0.0197x elapsed=0:02:46.01    \nframe=  199 fps=1.2 q=38.7 size=     768KiB time=00:00:03.28 bitrate=1916.3kbits/s speed=0.0197x elapsed=0:02:46.54    \nframe=  199 fps=1.2 q=38.7 size=     768KiB time=00:00:03.28 bitrate=1916.3kbits/s speed=0.0197x elapsed=0:02:47.07    \nframe=  199 fps=1.2 q=38.7 size=     768KiB time=00:00:03.28 bitrate=1916.3kbits/s speed=0.0196x elapsed=0:02:47.60    \nframe=  202 fps=1.2 q=36.5 size=    1024KiB time=00:00:03.33 bitrate=2516.7kbits/s speed=0.0198x elapsed=0:02:48.12    \nframe=  202 fps=1.2 q=36.5 size=    1024KiB time=00:00:03.33 bitrate=2516.7kbits/s speed=0.0198x elapsed=0:02:48.66    \nframe=  202 fps=1.2 q=36.5 size=    1024KiB time=00:00:03.33 bitrate=2516.7kbits/s speed=0.0197x elapsed=0:02:49.18    \nframe=  204 fps=1.2 q=38.6 size=    1024KiB time=00:00:03.36 bitrate=2491.8kbits/s speed=0.0198x elapsed=0:02:49.71    \nframe=  204 fps=1.2 q=38.6 size=    1024KiB time=00:00:03.36 bitrate=2491.8kbits/s speed=0.0198x elapsed=0:02:50.26    \nframe=  205 fps=1.2 q=34.2 size=    1024KiB time=00:00:03.38 bitrate=2479.5kbits/s speed=0.0198x elapsed=0:02:50.78    \nframe=  206 fps=1.2 q=36.5 size=    1024KiB time=00:00:03.40 bitrate=2467.3kbits/s speed=0.0198x elapsed=0:02:51.29    \nframe=  206 fps=1.2 q=36.5 size=    1024KiB time=00:00:03.40 bitrate=2467.3kbits/s speed=0.0198x elapsed=0:02:51.82    \nframe=  206 fps=1.2 q=36.5 size=    1024KiB time=00:00:03.40 bitrate=2467.3kbits/s speed=0.0197x elapsed=0:02:52.37    \nframe=  208 fps=1.2 q=38.6 size=    1024KiB time=00:00:03.43 bitrate=2443.4kbits/s speed=0.0199x elapsed=0:02:52.88    \nframe=  209 fps=1.2 q=34.7 size=    1024KiB time=00:00:03.45 bitrate=2431.6kbits/s speed=0.0199x elapsed=0:02:53.40    \nframe=  210 fps=1.2 q=36.7 size=    1024KiB time=00:00:03.46 bitrate=2419.9kbits/s speed=0.0199x elapsed=0:02:53.93    \nframe=  211 fps=1.2 q=38.6 size=    1024KiB time=00:00:03.48 bitrate=2408.3kbits/s speed=0.02x elapsed=0:02:54.44    \nframe=  212 fps=1.2 q=38.6 size=    1024KiB time=00:00:03.50 bitrate=2396.8kbits/s speed=0.02x elapsed=0:02:54.99    \nframe=  212 fps=1.2 q=38.6 size=    1024KiB time=00:00:03.50 bitrate=2396.8kbits/s speed=0.0199x elapsed=0:02:55.53    \nframe=  213 fps=1.2 q=34.3 size=    1024KiB time=00:00:03.51 bitrate=2385.5kbits/s speed=0.02x elapsed=0:02:56.06    \nframe=  214 fps=1.2 q=36.6 size=    1024KiB time=00:00:03.53 bitrate=2374.2kbits/s speed=0.02x elapsed=0:02:56.58    \nframe=  214 fps=1.2 q=36.6 size=    1024KiB time=00:00:03.53 bitrate=2374.2kbits/s speed=0.0199x elapsed=0:02:57.11    \nframe=  215 fps=1.2 q=38.4 size=    1024KiB time=00:00:03.55 bitrate=2363.1kbits/s speed=0.02x elapsed=0:02:57.63    \nframe=  215 fps=1.2 q=38.4 size=    1024KiB time=00:00:03.55 bitrate=2363.1kbits/s speed=0.0199x elapsed=0:02:58.13    \nframe=  216 fps=1.2 q=38.4 size=    1024KiB time=00:00:03.56 bitrate=2352.0kbits/s speed=0.02x elapsed=0:02:58.66    \nframe=  216 fps=1.2 q=38.4 size=    1024KiB time=00:00:03.56 bitrate=2352.0kbits/s speed=0.0199x elapsed=0:02:59.18    \nframe=  217 fps=1.2 q=33.9 size=    1024KiB time=00:00:03.58 bitrate=2341.1kbits/s speed=0.0199x elapsed=0:02:59.70    \nframe=  217 fps=1.2 q=33.9 size=    1024KiB time=00:00:03.58 bitrate=2341.1kbits/s speed=0.0199x elapsed=0:03:00.22    \nframe=  218 fps=1.2 q=36.2 size=    1024KiB time=00:00:03.60 bitrate=2330.3kbits/s speed=0.0199x elapsed=0:03:00.74    \nframe=  220 fps=1.2 q=38.5 size=    1024KiB time=00:00:03.63 bitrate=2308.9kbits/s speed=0.02x elapsed=0:03:01.24    \nframe=  221 fps=1.2 q=33.6 size=    1024KiB time=00:00:03.65 bitrate=2298.3kbits/s speed=0.0201x elapsed=0:03:01.76    \nframe=  221 fps=1.2 q=33.6 size=    1024KiB time=00:00:03.65 bitrate=2298.3kbits/s speed=0.02x elapsed=0:03:02.31    \nframe=  222 fps=1.2 q=36.2 size=    1024KiB time=00:00:03.66 bitrate=2287.9kbits/s speed=0.0201x elapsed=0:03:02.84    \nframe=  224 fps=1.2 q=38.4 size=    1024KiB time=00:00:03.70 bitrate=2267.3kbits/s speed=0.0202x elapsed=0:03:03.36    \nframe=  224 fps=1.2 q=38.4 size=    1024KiB time=00:00:03.70 bitrate=2267.3kbits/s speed=0.0201x elapsed=0:03:03.87    \nframe=  225 fps=1.2 q=33.4 size=    1024KiB time=00:00:03.71 bitrate=2257.1kbits/s speed=0.0202x elapsed=0:03:04.40    \nframe=  226 fps=1.2 q=36.1 size=    1024KiB time=00:00:03.73 bitrate=2247.0kbits/s speed=0.0202x elapsed=0:03:04.90    \nframe=  228 fps=1.2 q=37.8 size=    1024KiB time=00:00:03.76 bitrate=2227.2kbits/s speed=0.0203x elapsed=0:03:05.42    \nframe=  228 fps=1.2 q=37.8 size=    1024KiB time=00:00:03.76 bitrate=2227.2kbits/s speed=0.0203x elapsed=0:03:05.94    \nframe=  229 fps=1.2 q=33.2 size=    1024KiB time=00:00:03.78 bitrate=2217.3kbits/s speed=0.0203x elapsed=0:03:06.47    \nframe=  230 fps=1.2 q=35.7 size=    1024KiB time=00:00:03.80 bitrate=2207.6kbits/s speed=0.0203x elapsed=0:03:07.00    \nframe=  232 fps=1.2 q=37.7 size=    1024KiB time=00:00:03.83 bitrate=2188.4kbits/s speed=0.0204x elapsed=0:03:07.51    \nframe=  233 fps=1.2 q=33.6 size=    1024KiB time=00:00:03.85 bitrate=2179.0kbits/s speed=0.0205x elapsed=0:03:08.03    \nframe=  234 fps=1.2 q=35.9 size=    1024KiB time=00:00:03.86 bitrate=2169.6kbits/s speed=0.0205x elapsed=0:03:08.55    \nframe=  236 fps=1.2 q=37.4 size=    1024KiB time=00:00:03.90 bitrate=2151.0kbits/s speed=0.0206x elapsed=0:03:09.06    \nframe=  237 fps=1.3 q=33.7 size=    1024KiB time=00:00:03.91 bitrate=2141.9kbits/s speed=0.0207x elapsed=0:03:09.58    \nframe=  237 fps=1.2 q=33.7 size=    1024KiB time=00:00:03.91 bitrate=2141.9kbits/s speed=0.0206x elapsed=0:03:10.10    \nframe=  239 fps=1.3 q=37.8 size=    1024KiB time=00:00:03.95 bitrate=2123.8kbits/s speed=0.0207x elapsed=0:03:10.61    \nframe=  240 fps=1.3 q=37.8 size=    1024KiB time=00:00:03.96 bitrate=2114.9kbits/s speed=0.0208x elapsed=0:03:11.13    \nframe=  241 fps=1.3 q=33.4 size=    1024KiB time=00:00:03.98 bitrate=2106.0kbits/s speed=0.0208x elapsed=0:03:11.65    \nframe=  242 fps=1.3 q=35.8 size=    1024KiB time=00:00:04.00 bitrate=2097.2kbits/s speed=0.0208x elapsed=0:03:12.17    \nframe=  242 fps=1.3 q=35.8 size=    1024KiB time=00:00:04.00 bitrate=2097.2kbits/s speed=0.0208x elapsed=0:03:12.69    \nframe=  243 fps=1.3 q=37.9 size=    1024KiB time=00:00:04.01 bitrate=2088.5kbits/s speed=0.0208x elapsed=0:03:13.22    \nframe=  245 fps=1.3 q=33.4 size=    1024KiB time=00:00:04.05 bitrate=2071.3kbits/s speed=0.0209x elapsed=0:03:13.74    \nframe=  246 fps=1.3 q=35.4 size=    1024KiB time=00:00:04.06 bitrate=2062.9kbits/s speed=0.0209x elapsed=0:03:14.25    \nframe=  246 fps=1.3 q=35.4 size=    1024KiB time=00:00:04.06 bitrate=2062.9kbits/s speed=0.0209x elapsed=0:03:14.77    \nframe=  247 fps=1.3 q=37.9 size=    1024KiB time=00:00:04.08 bitrate=2054.4kbits/s speed=0.0209x elapsed=0:03:15.28    \nframe=  248 fps=1.3 q=37.4 size=    1024KiB time=00:00:04.10 bitrate=2046.1kbits/s speed=0.0209x elapsed=0:03:15.84    \nframe=  248 fps=1.3 q=37.4 size=    1024KiB time=00:00:04.10 bitrate=2046.1kbits/s speed=0.0209x elapsed=0:03:16.35    \nframe=  250 fps=1.3 q=35.2 size=    1024KiB time=00:00:04.13 bitrate=2029.6kbits/s speed=0.021x elapsed=0:03:16.88    \nframe=  250 fps=1.3 q=35.2 size=    1024KiB time=00:00:04.13 bitrate=2029.6kbits/s speed=0.0209x elapsed=0:03:17.46    \nframe=  250 fps=1.3 q=35.2 size=    1024KiB time=00:00:04.13 bitrate=2029.6kbits/s speed=0.0209x elapsed=0:03:18.00    \nframe=  250 fps=1.3 q=35.2 size=    1024KiB time=00:00:04.13 bitrate=2029.6kbits/s speed=0.0208x elapsed=0:03:18.53    \nframe=  251 fps=1.3 q=37.5 size=    1024KiB time=00:00:04.15 bitrate=2021.4kbits/s speed=0.0208x elapsed=0:03:19.07    \nframe=  252 fps=1.3 q=33.9 size=    1280KiB time=00:00:04.16 bitrate=2516.7kbits/s speed=0.0209x elapsed=0:03:19.59    \nframe=  252 fps=1.3 q=33.9 size=    1280KiB time=00:00:04.16 bitrate=2516.7kbits/s speed=0.0208x elapsed=0:03:20.11    \nframe=  254 fps=1.3 q=37.8 size=    1280KiB time=00:00:04.20 bitrate=2496.7kbits/s speed=0.0209x elapsed=0:03:20.63    \nframe=  254 fps=1.3 q=37.8 size=    1280KiB time=00:00:04.20 bitrate=2496.7kbits/s speed=0.0209x elapsed=0:03:21.15    \nframe=  254 fps=1.3 q=37.8 size=    1280KiB time=00:00:04.20 bitrate=2496.7kbits/s speed=0.0208x elapsed=0:03:21.67    \nframe=  255 fps=1.3 q=37.6 size=    1280KiB time=00:00:04.21 bitrate=2486.8kbits/s speed=0.0209x elapsed=0:03:22.19    \nframe=  256 fps=1.3 q=34.0 size=    1280KiB time=00:00:04.23 bitrate=2477.0kbits/s speed=0.0209x elapsed=0:03:22.71    \nframe=  256 fps=1.3 q=34.0 size=    1280KiB time=00:00:04.23 bitrate=2477.0kbits/s speed=0.0208x elapsed=0:03:23.23    \nframe=  256 fps=1.3 q=34.0 size=    1280KiB time=00:00:04.23 bitrate=2477.0kbits/s speed=0.0208x elapsed=0:03:23.79    \nframe=  257 fps=1.3 q=36.1 size=    1280KiB time=00:00:04.25 bitrate=2467.3kbits/s speed=0.0208x elapsed=0:03:24.35    \nframe=  258 fps=1.3 q=37.6 size=    1280KiB time=00:00:04.26 bitrate=2457.7kbits/s speed=0.0208x elapsed=0:03:24.89    \nframe=  259 fps=1.3 q=37.6 size=    1280KiB time=00:00:04.28 bitrate=2448.1kbits/s speed=0.0209x elapsed=0:03:25.41    \nframe=  259 fps=1.3 q=37.6 size=    1280KiB time=00:00:04.28 bitrate=2448.1kbits/s speed=0.0208x elapsed=0:03:25.91    \nframe=  260 fps=1.3 q=34.0 size=    1280KiB time=00:00:04.28 bitrate=2448.1kbits/s speed=0.0207x elapsed=0:03:26.44    \nframe=  261 fps=1.3 q=36.1 size=    1280KiB time=00:00:04.31 bitrate=2429.2kbits/s speed=0.0209x elapsed=0:03:26.95    \nframe=  261 fps=1.3 q=36.1 size=    1280KiB time=00:00:04.31 bitrate=2429.2kbits/s speed=0.0208x elapsed=0:03:27.48    \nframe=  263 fps=1.3 q=37.8 size=    1280KiB time=00:00:04.35 bitrate=2410.6kbits/s speed=0.0209x elapsed=0:03:28.00    \nframe=  263 fps=1.3 q=37.8 size=    1280KiB time=00:00:04.35 bitrate=2410.6kbits/s speed=0.0209x elapsed=0:03:28.51    \nframe=  263 fps=1.3 q=37.8 size=    1280KiB time=00:00:04.35 bitrate=2410.6kbits/s speed=0.0208x elapsed=0:03:29.03    \nframe=  264 fps=1.3 q=34.3 size=    1280KiB time=00:00:04.36 bitrate=2401.4kbits/s speed=0.0208x elapsed=0:03:29.56    \nframe=  264 fps=1.3 q=34.3 size=    1280KiB time=00:00:04.36 bitrate=2401.4kbits/s speed=0.0208x elapsed=0:03:30.08    \nframe=  264 fps=1.3 q=34.3 size=    1280KiB time=00:00:04.36 bitrate=2401.4kbits/s speed=0.0207x elapsed=0:03:30.61    \nframe=  264 fps=1.3 q=34.3 size=    1280KiB time=00:00:04.36 bitrate=2401.4kbits/s speed=0.0207x elapsed=0:03:31.13    \nframe=  265 fps=1.3 q=36.0 size=    1280KiB time=00:00:04.38 bitrate=2392.3kbits/s speed=0.0207x elapsed=0:03:31.64    \nframe=  267 fps=1.3 q=37.6 size=    1280KiB time=00:00:04.41 bitrate=2374.2kbits/s speed=0.0208x elapsed=0:03:32.17    \nframe=  268 fps=1.3 q=34.3 size=    1280KiB time=00:00:04.43 bitrate=2365.3kbits/s speed=0.0208x elapsed=0:03:32.69    \nframe=  268 fps=1.3 q=34.3 size=    1280KiB time=00:00:04.43 bitrate=2365.3kbits/s speed=0.0208x elapsed=0:03:33.20    \nframe=  269 fps=1.3 q=36.1 size=    1280KiB time=00:00:04.45 bitrate=2356.4kbits/s speed=0.0208x elapsed=0:03:33.72    \nframe=  270 fps=1.3 q=37.7 size=    1280KiB time=00:00:04.46 bitrate=2347.6kbits/s speed=0.0208x elapsed=0:03:34.26    \nframe=  271 fps=1.3 q=37.7 size=    1280KiB time=00:00:04.48 bitrate=2338.9kbits/s speed=0.0209x elapsed=0:03:34.78    \nframe=  272 fps=1.3 q=34.3 size=    1280KiB time=00:00:04.50 bitrate=2330.2kbits/s speed=0.0209x elapsed=0:03:35.30    \nframe=  272 fps=1.3 q=34.3 size=    1280KiB time=00:00:04.50 bitrate=2330.2kbits/s speed=0.0209x elapsed=0:03:35.82    \nframe=  273 fps=1.3 q=36.2 size=    1280KiB time=00:00:04.51 bitrate=2321.6kbits/s speed=0.0209x elapsed=0:03:36.37    \nframe=  275 fps=1.3 q=37.9 size=    1280KiB time=00:00:04.55 bitrate=2304.6kbits/s speed=0.021x elapsed=0:03:36.89    \nframe=  275 fps=1.3 q=37.9 size=    1280KiB time=00:00:04.55 bitrate=2304.6kbits/s speed=0.0209x elapsed=0:03:37.41    \nframe=  276 fps=1.3 q=34.5 size=    1280KiB time=00:00:04.56 bitrate=2296.2kbits/s speed=0.021x elapsed=0:03:37.95    \nframe=  276 fps=1.3 q=34.5 size=    1280KiB time=00:00:04.56 bitrate=2296.2kbits/s speed=0.0209x elapsed=0:03:38.47    \nframe=  278 fps=1.3 q=38.0 size=    1280KiB time=00:00:04.58 bitrate=2287.9kbits/s speed=0.0209x elapsed=0:03:38.98    \nframe=  278 fps=1.3 q=38.0 size=    1280KiB time=00:00:04.60 bitrate=2279.6kbits/s speed=0.021x elapsed=0:03:39.51    \nframe=  279 fps=1.3 q=37.7 size=    1280KiB time=00:00:04.61 bitrate=2271.4kbits/s speed=0.021x elapsed=0:03:40.03    \nframe=  280 fps=1.3 q=34.8 size=    1280KiB time=00:00:04.63 bitrate=2263.2kbits/s speed=0.021x elapsed=0:03:40.54    \nframe=  281 fps=1.3 q=36.5 size=    1280KiB time=00:00:04.65 bitrate=2255.1kbits/s speed=0.021x elapsed=0:03:41.09    \nframe=  282 fps=1.3 q=37.9 size=    1280KiB time=00:00:04.66 bitrate=2247.0kbits/s speed=0.0211x elapsed=0:03:41.62    \nframe=  284 fps=1.3 q=35.1 size=    1280KiB time=00:00:04.70 bitrate=2231.1kbits/s speed=0.0212x elapsed=0:03:42.14    \nframe=  284 fps=1.3 q=35.1 size=    1280KiB time=00:00:04.70 bitrate=2231.1kbits/s speed=0.0211x elapsed=0:03:42.66    \nframe=  285 fps=1.3 q=36.4 size=    1280KiB time=00:00:04.71 bitrate=2223.2kbits/s speed=0.0211x elapsed=0:03:43.18    \nframe=  287 fps=1.3 q=38.0 size=    1280KiB time=00:00:04.75 bitrate=2207.6kbits/s speed=0.0212x elapsed=0:03:43.70    \nframe=  287 fps=1.3 q=38.0 size=    1280KiB time=00:00:04.75 bitrate=2207.6kbits/s speed=0.0212x elapsed=0:03:44.22    \nframe=  288 fps=1.3 q=35.2 size=    1280KiB time=00:00:04.76 bitrate=2199.9kbits/s speed=0.0212x elapsed=0:03:44.75    \nframe=  289 fps=1.3 q=36.9 size=    1280KiB time=00:00:04.78 bitrate=2192.2kbits/s speed=0.0212x elapsed=0:03:45.26    \nframe=  290 fps=1.3 q=38.0 size=    1280KiB time=00:00:04.80 bitrate=2184.6kbits/s speed=0.0213x elapsed=0:03:45.79    \nframe=  291 fps=1.3 q=37.9 size=    1280KiB time=00:00:04.81 bitrate=2177.0kbits/s speed=0.0213x elapsed=0:03:46.31    \nframe=  291 fps=1.3 q=37.9 size=    1280KiB time=00:00:04.81 bitrate=2177.0kbits/s speed=0.0212x elapsed=0:03:46.83    \nframe=  292 fps=1.3 q=38.0 size=    1280KiB time=00:00:04.83 bitrate=2169.5kbits/s speed=0.0213x elapsed=0:03:47.34    \nframe=  293 fps=1.3 q=35.4 size=    1280KiB time=00:00:04.85 bitrate=2162.1kbits/s speed=0.0213x elapsed=0:03:47.86    \nframe=  293 fps=1.3 q=35.4 size=    1280KiB time=00:00:04.85 bitrate=2162.1kbits/s speed=0.0212x elapsed=0:03:48.39    \nframe=  294 fps=1.3 q=36.7 size=    1280KiB time=00:00:04.86 bitrate=2154.7kbits/s speed=0.0213x elapsed=0:03:48.90    \nframe=  296 fps=1.3 q=38.2 size=    1280KiB time=00:00:04.90 bitrate=2140.0kbits/s speed=0.0214x elapsed=0:03:49.42    \nframe=  296 fps=1.3 q=38.2 size=    1280KiB time=00:00:04.90 bitrate=2140.0kbits/s speed=0.0213x elapsed=0:03:49.97    \nframe=  297 fps=1.3 q=36.0 size=    1280KiB time=00:00:04.91 bitrate=2132.8kbits/s speed=0.0213x elapsed=0:03:50.52    \nframe=  297 fps=1.3 q=36.0 size=    1280KiB time=00:00:04.91 bitrate=2132.8kbits/s speed=0.0213x elapsed=0:03:51.03    \nframe=  298 fps=1.3 q=36.9 size=    1280KiB time=00:00:04.93 bitrate=2125.6kbits/s speed=0.0213x elapsed=0:03:51.55    \nframe=  299 fps=1.3 q=38.1 size=    1280KiB time=00:00:04.95 bitrate=2118.4kbits/s speed=0.0213x elapsed=0:03:52.07    \n[mp4 @ 0000029741b87a00] Starting second pass: moving the moov atom to the beginning of the file\n[out#0/mp4 @ 0000029741b87900] video:1522KiB audio:0KiB subtitle:0KiB other streams:0KiB global headers:2KiB muxing overhead: 0.464723%\nframe=  300 fps=1.3 q=38.2 Lsize=    1529KiB time=00:00:04.96 bitrate=2521.8kbits/s speed=0.0214x elapsed=0:03:52.54    \nx265 [info]: frame I:      2, Avg QP:35.75  kb/s: 3779.52 \nx265 [info]: frame P:     74, Avg QP:35.05  kb/s: 3604.94 \nx265 [info]: frame B:    224, Avg QP:37.77  kb/s: 2112.08 \nx265 [info]: Weighted P-Frames: Y:2.7% UV:2.7%\n\nencoded 300 frames in 232.30s (1.29 fps), 2491.44 kb/s, Avg QP:37.09\n",
  "seconds": 232.80828952789307,
  "probe_out": {}
}